<svg width="32" height="32" viewBox="0 0 32 32" fill="none" xmlns="http://www.w3.org/2000/svg">
  <defs>
    <linearGradient id="g1" x1="16" y1="2" x2="16" y2="30" gradientUnits="userSpaceOnUse">
      <stop offset="0%" stop-color="#2e8bc7"/>
      <stop offset="100%" stop-color="#002140"/>
    </linearGradient>
    <linearGradient id="g2" x1="16" y1="4" x2="16" y2="16" gradientUnits="userSpaceOnUse">
      <stop offset="0%" stop-color="white" stop-opacity="0.22"/>
      <stop offset="100%" stop-color="white" stop-opacity="0"/>
    </linearGradient>
  </defs>
  <path d="M16 2L4 7.5V16C4 23.18 9.37 29 16 29C22.63 29 28 23.18 28 16V7.5L16 2Z" fill="url(#g1)"/>
  <path d="M16 4L7 8.5V16C7 21.8 11.1 26.5 16 26.5V4Z" fill="url(#g2)"/>
  <path d="M16 2L4 7.5V16C4 23.18 9.37 29 16 29C22.63 29 28 23.18 28 16V7.5L16 2Z" stroke="rgba(255,255,255,0.18)" stroke-width="0.5" fill="none"/>
  <path d="M16 8L10 22.5H12.6L13.9 19H18.1L19.4 22.5H22L16 8ZM14.8 17.2L16 13.8L17.2 17.2H14.8Z" fill="white"/>
</svg>
